<svg width="710" height="325" xmlns="http://www.w3.org/2000/svg" xmlns:xlink="http://www.w3.org/1999/xlink" overflow="hidden"><defs><clipPath id="clip0"><path d="M123 62 833 62 833 387 123 387Z" fill-rule="evenodd" clip-rule="evenodd"/></clipPath></defs><g clip-path="url(#clip0)" transform="translate(-123 -62)"><rect x="124.5" y="63.5001" width="96" height="43" stroke="#2F528F" stroke-miterlimit="8" fill="#B4C7E7"/><text fill="#FFFFFF" font-family="Yu Gothic,Yu Gothic_MSFontService,sans-serif" font-weight="400" font-size="24" transform="translate(146.378 92)">PGD</text><rect x="220.5" y="63.5001" width="96" height="43" stroke="#2F528F" stroke-miterlimit="8" fill="#B4C7E7"/><text fill="#FFFFFF" font-family="Yu Gothic,Yu Gothic_MSFontService,sans-serif" font-weight="400" font-size="24" transform="translate(242.294 92)">PUD</text><rect x="412.5" y="63.5001" width="96" height="43" stroke="#2F528F" stroke-miterlimit="8" fill="#B4C7E7"/><text fill="#FFFFFF" font-family="Yu Gothic,Yu Gothic_MSFontService,sans-serif" font-weight="400" font-size="24" transform="translate(437.044 92)">PTE</text><rect x="316.5" y="63.5001" width="96" height="43" stroke="#2F528F" stroke-miterlimit="8" fill="#B4C7E7"/><text fill="#FFFFFF" font-family="Yu Gothic,Yu Gothic_MSFontService,sans-serif" font-weight="400" font-size="24" transform="translate(336.128 92)">PMD</text><rect x="508.5" y="63.5001" width="227" height="43" stroke="#2F528F" stroke-miterlimit="8" fill="#B4C7E7"/><text fill="#FFFFFF" font-family="Yu Gothic,Yu Gothic_MSFontService,sans-serif" font-weight="400" font-size="24" transform="translate(589.586 92)">offse<tspan x="55.6667" y="0">t</tspan></text><rect x="175.5" y="170.5" width="72" height="19" stroke="#2F528F" stroke-miterlimit="8" fill="#E2F0D9"/><rect x="175.5" y="189.5" width="72" height="20" stroke="#2F528F" stroke-miterlimit="8" fill="#E2F0D9"/><rect x="175.5" y="209.5" width="72" height="19" stroke="#2F528F" stroke-miterlimit="8" fill="#E2F0D9"/><rect x="175.5" y="228.5" width="72" height="20" stroke="#2F528F" stroke-miterlimit="8" fill="#E2F0D9"/><rect x="288.5" y="170.5" width="72" height="19" stroke="#2F528F" stroke-miterlimit="8" fill="#E2F0D9"/><rect x="288.5" y="189.5" width="72" height="20" stroke="#2F528F" stroke-miterlimit="8" fill="#E2F0D9"/><rect x="288.5" y="209.5" width="72" height="19" stroke="#2F528F" stroke-miterlimit="8" fill="#E2F0D9"/><rect x="288.5" y="228.5" width="72" height="20" stroke="#2F528F" stroke-miterlimit="8" fill="#E2F0D9"/><rect x="388.5" y="170.5" width="72" height="19" stroke="#2F528F" stroke-miterlimit="8" fill="#E2F0D9"/><rect x="388.5" y="189.5" width="72" height="20" stroke="#2F528F" stroke-miterlimit="8" fill="#E2F0D9"/><rect x="388.5" y="209.5" width="72" height="19" stroke="#2F528F" stroke-miterlimit="8" fill="#E2F0D9"/><rect x="388.5" y="228.5" width="72" height="20" stroke="#2F528F" stroke-miterlimit="8" fill="#E2F0D9"/><rect x="288.5" y="282.5" width="72" height="20" stroke="#2F528F" stroke-miterlimit="8" fill="#E2F0D9"/><rect x="288.5" y="302.5" width="72" height="19" stroke="#2F528F" stroke-miterlimit="8" fill="#E2F0D9"/><rect x="288.5" y="321.5" width="72" height="20" stroke="#2F528F" stroke-miterlimit="8" fill="#E2F0D9"/><rect x="288.5" y="341.5" width="72" height="19" stroke="#2F528F" stroke-miterlimit="8" fill="#E2F0D9"/><rect x="388.5" y="282.5" width="72" height="20" stroke="#2F528F" stroke-miterlimit="8" fill="#E2F0D9"/><rect x="388.5" y="302.5" width="72" height="19" stroke="#2F528F" stroke-miterlimit="8" fill="#E2F0D9"/><rect x="388.5" y="321.5" width="72" height="20" stroke="#2F528F" stroke-miterlimit="8" fill="#E2F0D9"/><rect x="388.5" y="341.5" width="72" height="19" stroke="#2F528F" stroke-miterlimit="8" fill="#E2F0D9"/><rect x="489.5" y="169.5" width="71" height="20" stroke="#2F528F" stroke-miterlimit="8" fill="#E2F0D9"/><rect x="488.5" y="189.5" width="72" height="20" stroke="#2F528F" stroke-miterlimit="8" fill="#E2F0D9"/><rect x="488.5" y="209.5" width="72" height="19" stroke="#2F528F" stroke-miterlimit="8" fill="#E2F0D9"/><rect x="488.5" y="228.5" width="72" height="20" stroke="#2F528F" stroke-miterlimit="8" fill="#E2F0D9"/><rect x="488.5" y="283.5" width="72" height="19" stroke="#2F528F" stroke-miterlimit="8" fill="#E2F0D9"/><rect x="488.5" y="302.5" width="72" height="20" stroke="#2F528F" stroke-miterlimit="8" fill="#E2F0D9"/><rect x="488.5" y="322.5" width="72" height="20" stroke="#2F528F" stroke-miterlimit="8" fill="#E2F0D9"/><rect x="488.5" y="342.5" width="72" height="19" stroke="#2F528F" stroke-miterlimit="8" fill="#E2F0D9"/><rect x="658.5" y="153.5" width="71" height="20" stroke="#2F528F" stroke-miterlimit="8" fill="#E2F0D9"/><rect x="658.5" y="173.5" width="71" height="19" stroke="#2F528F" stroke-miterlimit="8" fill="#E2F0D9"/><rect x="658.5" y="192.5" width="71" height="20" stroke="#2F528F" stroke-miterlimit="8" fill="#E2F0D9"/><rect x="658.5" y="212.5" width="71" height="20" stroke="#2F528F" stroke-miterlimit="8" fill="#E2F0D9"/><rect x="658.5" y="232.5" width="72" height="19" stroke="#2F528F" stroke-miterlimit="8" fill="#E2F0D9"/><text font-family="MS Mincho,MS Mincho_MSFontService,sans-serif" font-weight="400" font-size="48" transform="translate(311.299 283)">⋮<tspan x="99.3889" y="0">⋮</tspan><tspan x="198.778" y="0">⋮</tspan><tspan x="370.076" y="3">⋮</tspan></text><path d="M0-0.5 73.6655-0.5 73.6655 23.1592 72.6655 23.1592 72.6655 0 73.1655 0.5 0 0.5ZM77.1655 21.8258 73.1655 29.8258 69.1655 21.8258Z" fill="#4472C4" transform="matrix(-4.37114e-08 1 1 4.37114e-08 145.5 106.5)"/><path d="M0-0.5 21.0826-0.5 21.0826 12.8932 20.5826 12.3932 34.4986 12.3932 34.4986 13.3932 20.0826 13.3932 20.0826 0 20.5826 0.5 0 0.5ZM33.1652 8.89323 41.1652 12.8932 33.1652 16.8932Z" fill="#4472C4" transform="matrix(1 0 0 -1 247.5 180.393)"/><path d="M0-0.5 29.5807-0.5 29.5807 31.1309 29.0807 30.6309 51.4947 30.6309 51.4947 31.6309 28.5807 31.6309 28.5807 0 29.0807 0.5 0 0.5ZM50.1614 27.1309 58.1614 31.1309 50.1614 35.1309Z" fill="#4472C4" transform="matrix(-4.37114e-08 1 1 4.37114e-08 268.5 106.5)"/><path d="M360.5 199 374.547 199 374.547 284.711 374.047 284.211 380.926 284.211 380.926 285.211 373.547 285.211 373.547 199.5 374.047 200 360.5 200ZM379.593 280.711 387.593 284.711 379.593 288.711Z" fill="#4472C4"/><path d="M0-0.5 37.8988-0.5 37.8988 37.7964 37.3988 37.2964 166.926 37.2964 166.926 38.2964 36.8988 38.2964 36.8988 0 37.3988 0.5 0 0.5ZM165.593 33.7964 173.593 37.7964 165.593 41.7964Z" fill="#4472C4" transform="matrix(-4.37114e-08 1 1 4.37114e-08 364.5 108.5)"/><path d="M0-0.5 14.5116-0.5 14.5116 120 14.0116 119.5 21.3564 119.5 21.3564 120.5 13.5116 120.5 13.5116 0 14.0116 0.5 0 0.5ZM20.0231 116 28.0231 120 20.0231 124Z" fill="#4472C4" transform="matrix(1 0 0 -1 460.5 292.5)"/><path d="M0-0.5 30.6361-0.5 30.6361 37.7964 30.1361 37.2964 53.6056 37.2964 53.6056 38.2964 29.6361 38.2964 29.6361 0 30.1361 0.5 0 0.5ZM52.2722 33.7964 60.2722 37.7964 52.2722 41.7964Z" fill="#4472C4" transform="matrix(-4.37114e-08 1 1 4.37114e-08 460.5 106.5)"/><path d="M0-0.5 45.005-0.5 45.005 61.8391 44.505 61.3391 82.3434 61.3391 82.3434 62.3391 44.005 62.3391 44.005 0 44.505 0.5 0 0.5ZM81.0101 57.8391 89.0101 61.8391 81.0101 65.8391Z" fill="#4472C4" transform="matrix(1 0 0 -1 560.5 219.339)"/><text font-family="Yu Gothic,Yu Gothic_MSFontService,sans-serif" font-weight="700" font-size="19" transform="translate(667.303 143)">Page 1<tspan font-size="16" x="-139.848" y="21">PTE 1</tspan><tspan font-size="16" x="-134.541" y="136">PTE N</tspan><tspan font-size="16" x="-247.021" y="22">PMD 1</tspan><tspan font-size="16" x="-241.873" y="132">PMD N</tspan><tspan font-size="16" x="-408.319" y="134">PUD N</tspan><tspan font-size="16" x="-350.302" y="23">PUD 1</tspan><tspan font-size="16" x="-482.479" y="19">PGD</tspan></text><rect x="658.5" y="287.5" width="71" height="20" stroke="#2F528F" stroke-miterlimit="8" fill="#E2F0D9"/><rect x="658.5" y="307.5" width="71" height="19" stroke="#2F528F" stroke-miterlimit="8" fill="#E2F0D9"/><rect x="658.5" y="326.5" width="71" height="20" stroke="#2F528F" stroke-miterlimit="8" fill="#E2F0D9"/><rect x="658.5" y="346.5" width="71" height="20" stroke="#2F528F" stroke-miterlimit="8" fill="#E2F0D9"/><rect x="658.5" y="366.5" width="72" height="19" stroke="#2F528F" stroke-miterlimit="8" fill="#E2F0D9"/><text font-family="Yu Gothic,Yu Gothic_MSFontService,sans-serif" font-weight="700" font-size="19" transform="translate(783.695 211)">4KB</text><path d="M739.5 153.5C746.68 153.5 752.5 154.47 752.5 155.667L752.5 200.334C752.5 201.53 758.32 202.5 765.5 202.5 758.32 202.5 752.5 203.47 752.5 204.667L752.5 249.334C752.5 250.53 746.68 251.5 739.5 251.5" stroke="#4472C4" stroke-miterlimit="8" fill="none" fill-rule="evenodd"/></g></svg>