<svg width="614" height="333" xmlns="http://www.w3.org/2000/svg" xmlns:xlink="http://www.w3.org/1999/xlink" overflow="hidden"><defs><clipPath id="clip0"><path d="M123 62 737 62 737 395 123 395Z" fill-rule="evenodd" clip-rule="evenodd"/></clipPath></defs><g clip-path="url(#clip0)" transform="translate(-123 -62)"><rect x="124.5" y="63.5001" width="96" height="43" stroke="#2F528F" stroke-miterlimit="8" fill="#B4C7E7"/><text fill="#FFFFFF" font-family="Yu Gothic,Yu Gothic_MSFontService,sans-serif" font-weight="400" font-size="24" transform="translate(146.378 92)">PGD</text><rect x="220.5" y="63.5001" width="96" height="43" stroke="#2F528F" stroke-miterlimit="8" fill="#B4C7E7"/><text fill="#FFFFFF" font-family="Yu Gothic,Yu Gothic_MSFontService,sans-serif" font-weight="400" font-size="24" transform="translate(242.294 92)">PUD</text><rect x="316.5" y="63.5001" width="419" height="43" stroke="#2F528F" stroke-miterlimit="8" fill="#B4C7E7"/><text fill="#FFFFFF" font-family="Yu Gothic,Yu Gothic_MSFontService,sans-serif" font-weight="400" font-size="24" transform="translate(493.587 92)">offse<tspan x="55.6667" y="0">t</tspan></text><rect x="175.5" y="170.5" width="72" height="19" stroke="#2F528F" stroke-miterlimit="8" fill="#E2F0D9"/><rect x="175.5" y="189.5" width="72" height="20" stroke="#2F528F" stroke-miterlimit="8" fill="#E2F0D9"/><rect x="175.5" y="209.5" width="72" height="19" stroke="#2F528F" stroke-miterlimit="8" fill="#E2F0D9"/><rect x="175.5" y="228.5" width="72" height="20" stroke="#2F528F" stroke-miterlimit="8" fill="#E2F0D9"/><rect x="288.5" y="170.5" width="72" height="19" stroke="#2F528F" stroke-miterlimit="8" fill="#E2F0D9"/><rect x="288.5" y="189.5" width="72" height="20" stroke="#2F528F" stroke-miterlimit="8" fill="#E2F0D9"/><rect x="288.5" y="209.5" width="72" height="19" stroke="#2F528F" stroke-miterlimit="8" fill="#E2F0D9"/><rect x="288.5" y="228.5" width="72" height="20" stroke="#2F528F" stroke-miterlimit="8" fill="#E2F0D9"/><rect x="288.5" y="282.5" width="72" height="20" stroke="#2F528F" stroke-miterlimit="8" fill="#E2F0D9"/><rect x="288.5" y="302.5" width="72" height="19" stroke="#2F528F" stroke-miterlimit="8" fill="#E2F0D9"/><rect x="288.5" y="321.5" width="72" height="20" stroke="#2F528F" stroke-miterlimit="8" fill="#E2F0D9"/><rect x="288.5" y="341.5" width="72" height="19" stroke="#2F528F" stroke-miterlimit="8" fill="#E2F0D9"/><rect x="507.5" y="146.5" width="72" height="20" stroke="#2F528F" stroke-miterlimit="8" fill="#E2F0D9"/><rect x="507.5" y="166.5" width="72" height="19" stroke="#2F528F" stroke-miterlimit="8" fill="#E2F0D9"/><rect x="507.5" y="185.5" width="72" height="20" stroke="#2F528F" stroke-miterlimit="8" fill="#E2F0D9"/><rect x="507.5" y="205.5" width="72" height="19" stroke="#2F528F" stroke-miterlimit="8" fill="#E2F0D9"/><rect x="507.5" y="225.5" width="72" height="19" stroke="#2F528F" stroke-miterlimit="8" fill="#E2F0D9"/><text font-family="MS Mincho,MS Mincho_MSFontService,sans-serif" font-weight="400" font-size="48" transform="translate(311.299 283)">⋮<tspan x="219.583" y="74">⋮</tspan></text><path d="M0-0.5 73.6655-0.5 73.6655 23.1592 72.6655 23.1592 72.6655 0 73.1655 0.5 0 0.5ZM77.1655 21.8258 73.1655 29.8258 69.1655 21.8258Z" fill="#4472C4" transform="matrix(-4.37114e-08 1 1 4.37114e-08 145.5 106.5)"/><path d="M0-0.5 21.0826-0.5 21.0826 12.8932 20.5826 12.3932 34.4986 12.3932 34.4986 13.3932 20.0826 13.3932 20.0826 0 20.5826 0.5 0 0.5ZM33.1652 8.89323 41.1652 12.8932 33.1652 16.8932Z" fill="#4472C4" transform="matrix(1 0 0 -1 247.5 180.393)"/><path d="M0-0.5 29.5807-0.5 29.5807 31.1309 29.0807 30.6309 51.4947 30.6309 51.4947 31.6309 28.5807 31.6309 28.5807 0 29.0807 0.5 0 0.5ZM50.1614 27.1309 58.1614 31.1309 50.1614 35.1309Z" fill="#4472C4" transform="matrix(-4.37114e-08 1 1 4.37114e-08 268.5 106.5)"/><path d="M0-0.5 70.3252-0.5 70.3252 53.005 69.8252 52.505 132.984 52.505 132.984 53.505 69.3252 53.505 69.3252 0 69.8252 0.5 0 0.5ZM131.65 49.005 139.65 53.005 131.65 57.005Z" fill="#4472C4" transform="matrix(1 0 0 -1 360.5 199.505)"/><text font-family="Yu Gothic,Yu Gothic_MSFontService,sans-serif" font-weight="700" font-size="19" transform="translate(516.81 135)">Page 1<tspan font-size="16" x="-257.827" y="142">PUD N</tspan><tspan font-size="16" x="-199.809" y="31">PUD 1</tspan><tspan font-size="16" x="-331.987" y="27">PGD</tspan></text><rect x="507.5" y="243.5" width="72" height="20" stroke="#2F528F" stroke-miterlimit="8" fill="#E2F0D9"/><rect x="507.5" y="263.5" width="72" height="20" stroke="#2F528F" stroke-miterlimit="8" fill="#E2F0D9"/><rect x="507.5" y="282.5" width="72" height="19" stroke="#2F528F" stroke-miterlimit="8" fill="#E2F0D9"/><path d="M589.5 146.5C599.165 146.5 607 147.806 607 149.417L607 221.083C607 222.694 614.835 224 624.5 224 614.835 224 607 225.306 607 226.917L607 298.583C607 300.194 599.165 301.5 589.5 301.5" stroke="#4472C4" stroke-miterlimit="8" fill="none" fill-rule="evenodd"/><text font-family="Yu Gothic,Yu Gothic_MSFontService,sans-serif" font-weight="700" font-size="19" transform="translate(633.159 229)">2MB</text></g></svg>